<svg width="673" height="539" viewBox="0 0 673 539" fill="none" xmlns="http://www.w3.org/2000/svg"><rect x="1" y="1" width="672" height="538" rx="20" fill="#232323"/><mask id="mask0_12_301" style="mask-type:alpha" maskUnits="userSpaceOnUse" x="1" y="1" width="672" height="538"><rect x="1" y="1" width="672" height="538" rx="20" fill="#0F103C"/></mask><g mask="url(#mask0_12_301)"><line x1="523.59" y1="1.48" x2="523.59" y2="538.43" stroke="#282828"/><line x1="449" y1="1.48" x2="449" y2="538.43" stroke="#282828"/><line x1="598.16" y1="1.48" x2="598.16" y2="538.43" stroke="#282828"/><line x1="672.75" y1="1.48" x2="672.75" y2="538.43" stroke="#282828"/><line x1="374.42" y1="1.48" x2="374.42" y2="538.43" stroke="#282828"/><line x1="299.83" y1="1.48" x2="299.83" y2="538.43" stroke="#282828"/><line x1="225.25" y1="1.48" x2="225.25" y2="538.43" stroke="#282828"/><line x1="150.67" y1="1.48" x2="150.67" y2="538.43" stroke="#282828"/><line x1="76.08" y1="1.48" x2="76.08" y2="538.43" stroke="#282828"/><line x1="1.5" y1="1.48" x2="1.5" y2="538.43" stroke="#282828"/><line x1="1" y1=".98" x2="895.68" y2=".98" stroke="#282828"/><line x1="1" y1="77.69" x2="895.68" y2="77.69" stroke="#282828"/><line x1="1" y1="154.4" x2="895.68" y2="154.4" stroke="#282828"/><line x1="1" y1="231.1" x2="895.68" y2="231.1" stroke="#282828"/><line x1="1" y1="307.81" x2="895.68" y2="307.81" stroke="#282828"/><line x1="1" y1="384.52" x2="895.68" y2="384.52" stroke="#282828"/><line x1="1" y1="461.23" x2="895.68" y2="461.23" stroke="#282828"/><line x1="1" y1="537.93" x2="895.68" y2="537.93" stroke="#282828"/></g><mask id="mask1_12_301" style="mask-type:alpha" maskUnits="userSpaceOnUse" x="0" y="0" width="672" height="538"><rect width="672" height="538" rx="20" fill="#0F103C"/></mask><g mask="url(#mask1_12_301)"><mask id="mask2_12_301" style="mask-type:alpha" maskUnits="userSpaceOnUse" x="-1" y="81" width="672" height="420"><rect x="-1" y="81" width="672" height="420" rx="20" fill="#0F103C"/></mask><g mask="url(#mask2_12_301)"><path opacity=".4" d="M21.76 469.01c-5.99 3.23-15.77 3.97-23.62 5.9v29.16H671V150.85c-3.66 1.25-8 1.8-12.13 2.3-3.95 1.32-8.43 1.62-12.76 2.62-4.41.8-9.66 1.19-14.04 2.52-2.05.88-3.99-.15-5.75.92-4.27.65-8.28 1.75-11.5 3.43-1.9-.03-2.77.74-4.47.98-1.27.45-2.9-.16-3.83.53a47.4 47.4 0 0 1-10.85 1.23c-1.82-.14-4.73.76-6.38-.15-.86.58-1.5-.14-2.56.05-.86-.02-1.86.28-2.56-.11-2.16.38-3.29-.32-5.1-.73-5.17 1.58-10.2 1.7-15.96 1.13-3-.94-3.3 1.5-4.46-.36-1.03.99-5.1 1.24-5.75-.09-.59 1.6-3.31 1.08-5.74 1.43-2.91.92-6.06 1.23-9.58 1.55-6.43 3.01-15.93 3.44-23.62 5.3-3.54-.17-6.44.46-9.58.61-4.08-.05-7.17-.9-10.85-.78a7.37 7.37 0 0 1-3.83-1.78c-1.45.07-2.51.72-3.83 1.03-6.8.77-11.66 3.25-18.52 4.3-2.48.66-5.8 1.85-8.29 1.1-.29-.5-.55-1.88-1.27-.73-2.95.8-4.7 1.85-7.02 3.02-3.92.96-6.91 2.7-8.3 4.88-2.42 2.29-5.7 4.41-8.29 6.5-2.6 4.14-7.16 7.67-12.77 10.6a48.6 48.6 0 0 1-9.58 1.23c-1.92 1.1-4.4 1.69-7.02 2.11-4.83.13-3 4.17-7.01 5.4-.72.8-2.21.92-3.2 1.54-1.19 1.1-2.09 2.4-3.83 3.31-2.56.53-3.64 2.3-6.37 2.8-3.06 1.09-6.85 1.25-10.21 1.83-6.06.1-11.33 2.31-17.24 3.1-1.56.07-3 .7-3.83-.4-3.03.13-5.38 1.56-8.3 1.58-19.18 3.25-10.18-.6-14.04-5.78-1.1.03-.94.88-1.91 1.02-.92.07-1.6.08-1.92.58-2.53.74-2.2 3.9-4.47 4.88-.84 2.07-3.15 3.9-7.02 4.14-3.22.5-3.2 1.57-3.83-1.17-2.88 10.77-5.98 21.63-10.21 32.12-.67 2.05-1.35 4.44-3.2 6.23-4.06.96-4.95 4.08-6.38 6.31-4.9 4.3-1.26 12.85-13.41 13.1-5.65 2.97-2.2 9.88-5.1 13.93-4.67 8.77-1.68 23.79-15.96 28.78-1.78.45-2.34 1.8-2.56 2.82a4.12 4.12 0 0 0-2.56 3.2c-2.8 2.02-3.4 4.6-6.39 6.51-.48 1.23-.52 2.88-3.19 3.23-1.37.67-3.64 3.05-4.47.93-2.84 1.7-4.74 4.22-9.58 3.91-.98.79-2.85.76-3.83 1.56-1.35.95-1.14 1.32-3.2 1.67-2.88.31-2.66 3.1-3.82 4.41-2.62.66-3.95 2.78-4.48.16.02 1.64-1.91 1.89-3.83 2.63-1.53 1.05-3.72.58-5.74 1.05-2.69.3-3.73 2.13-6.38 2.19-5.26 1.81-11.04 1.88-16.6 3.68-3.87.16-14.1 2.5-15.33 4.43-9.07 1.74-10.1 7.03-11.49 11.71a99.36 99.36 0 0 0-7.02 9.02c-2.85 4.32-3.26 9.7-7.66 13.43-11.12 2.99-22.73 5.64-33.2 9.05-4.29 1.26-9.02 2.02-13.41 3.14-2.97 1.9-5.4 4.2-10.21 5.03-7.79 2.2-16.49 2.98-24.26 5.22-4.36 1.13-.52-2.74-3.83-.42-9.23 4.31-14.22 10.78-16.6 17.5-1.69 6-1.1 12.89-8.3 17.35-1.73 4.7-2.45 3.85-7.67 6.81Z" fill="url(#pbotnt0_linear_12_301)" fill-opacity=".6"/><g style="mix-blend-mode:screen"><path d="M-1.86 474.92c7.86-1.94 17.63-2.68 23.62-5.9 5.22-2.97 5.94-2.11 7.66-6.82 7.21-4.46 6.62-11.35 8.3-17.35 2.39-6.72 7.38-13.19 16.6-17.5 3.32-2.32-.52 1.55 3.84.42 7.78-2.23 16.47-3.02 24.26-5.22 4.8-.84 7.24-3.13 10.21-5.03 4.39-1.12 9.12-1.88 13.41-3.14 10.47-3.41 22.08-6.06 33.2-9.05 4.4-3.73 4.81-9.1 7.66-13.42a99.36 99.36 0 0 1 7.02-9.03c1.4-4.68 2.42-9.97 11.5-11.71 1.23-1.93 11.45-4.26 15.32-4.43 5.56-1.8 11.34-1.87 16.6-3.68 2.65-.06 3.7-1.9 6.38-2.18 2.03-.48 4.2 0 5.74-1.06 1.92-.74 3.85-1 3.83-2.63.53 2.63 1.86.5 4.48-.15 1.16-1.31.94-4.1 3.83-4.42 2.05-.35 1.84-.72 3.19-1.67.98-.8 2.85-.77 3.83-1.56 4.84.31 6.74-2.2 9.58-3.91.83 2.12 3.1-.26 4.47-.93 2.68-.35 2.71-2 3.2-3.23 2.98-1.92 3.58-4.5 6.38-6.51.18-1.14.9-2.51 2.56-3.2.22-1.01.78-2.37 2.56-2.82 14.28-4.99 11.29-20.01 15.95-28.78 2.92-4.05-.54-10.96 5.1-13.94 12.16-.24 8.52-8.8 13.42-13.09 1.44-2.23 2.32-5.35 6.39-6.31 1.84-1.8 2.52-4.18 3.19-6.23 4.23-10.5 7.33-21.35 10.2-32.12.64 2.74.62 1.66 3.84 1.17 3.87-.24 6.19-2.07 7.02-4.15 2.27-.98 1.94-4.13 4.47-4.87.33-.5 1-.52 1.92-.59.97-.13.82-.98 1.91-1.01 3.86 5.18-5.14 9.03 14.04 5.78 2.92-.02 5.27-1.45 8.3-1.58.83 1.1 2.27.46 3.83.4 5.9-.79 11.18-3.01 17.24-3.1 3.36-.58 7.14-.74 10.2-1.84 2.74-.5 3.81-2.26 6.38-2.79 1.74-.91 2.64-2.22 3.84-3.31.98-.62 2.47-.74 3.19-1.53 4.01-1.24 2.18-5.28 7.01-5.4 2.61-.43 5.1-1.01 7.02-2.12 3.37-.16 6.66-.49 9.58-1.24 5.61-2.92 10.16-6.45 12.77-10.6 2.6-2.08 5.87-4.2 8.3-6.5 1.38-2.17 4.37-3.91 8.29-4.87 2.32-1.16 4.07-2.21 7.02-3.02.72-1.15.98.22 1.27.73 2.48.75 5.8-.44 8.3-1.1 6.85-1.05 11.7-3.53 18.5-4.3 1.33-.3 2.39-.97 3.84-1.03.92.7 2.1 1.6 3.83 1.78 3.68-.11 6.77.73 10.85.78 3.14-.15 6.04-.78 9.58-.61 7.69-1.87 17.2-2.29 23.62-5.3 3.52-.32 6.67-.63 9.58-1.55 2.43-.35 5.15.17 5.74-1.43.65 1.33 4.72 1.08 5.75.09 1.16 1.86 1.46-.58 4.46.36 5.75.57 10.8.45 15.96-1.13 1.81.41 2.94 1.1 5.1.73.7.39 1.7.1 2.56.11 1.06-.2 1.7.53 2.56-.05 1.65.91 4.56 0 6.38.15 3.65 0 7.29-.4 10.85-1.23.93-.7 2.56-.08 3.83-.54 1.7-.23 2.57-1 4.48-.98 3.2-1.67 7.22-2.77 11.49-3.42 1.76-1.07 3.7-.04 5.75-.92 4.38-1.33 9.63-1.73 14.04-2.52 4.33-1 8.8-1.3 12.76-2.62 4.14-.5 8.47-1.05 12.13-2.3" stroke="url(#pbotnt1_linear_12_301)" stroke-width="3"/><g filter="url(#filter0_f_12_301)"><path d="M-1.86 474.92c7.86-1.94 17.63-2.68 23.62-5.9 5.22-2.97 5.94-2.11 7.66-6.82 7.21-4.46 6.62-11.35 8.3-17.35 2.39-6.72 7.38-13.19 16.6-17.5 3.32-2.32-.52 1.55 3.84.42 7.78-2.23 16.47-3.02 24.26-5.22 4.8-.84 7.24-3.13 10.21-5.03 4.39-1.12 9.12-1.88 13.41-3.14 10.47-3.41 22.08-6.06 33.2-9.05 4.4-3.73 4.81-9.1 7.66-13.42a99.36 99.36 0 0 1 7.02-9.03c1.4-4.68 2.42-9.97 11.5-11.71 1.23-1.93 11.45-4.26 15.32-4.43 5.56-1.8 11.34-1.87 16.6-3.68 2.65-.06 3.7-1.9 6.38-2.18 2.03-.48 4.2 0 5.74-1.06 1.92-.74 3.85-1 3.83-2.63.53 2.63 1.86.5 4.48-.15 1.16-1.31.94-4.1 3.83-4.42 2.05-.35 1.84-.72 3.19-1.67.98-.8 2.85-.77 3.83-1.56 4.84.31 6.74-2.2 9.58-3.91.83 2.12 3.1-.26 4.47-.93 2.68-.35 2.71-2 3.2-3.23 2.98-1.92 3.58-4.5 6.38-6.51.18-1.14.9-2.51 2.56-3.2.22-1.01.78-2.37 2.56-2.82 14.28-4.99 11.29-20.01 15.95-28.78 2.92-4.05-.54-10.96 5.1-13.94 12.16-.24 8.52-8.8 13.42-13.09 1.44-2.23 2.32-5.35 6.39-6.31 1.84-1.8 2.52-4.18 3.19-6.23 4.23-10.5 7.33-21.35 10.2-32.12.64 2.74.62 1.66 3.84 1.17 3.87-.24 6.19-2.07 7.02-4.15 2.27-.98 1.94-4.13 4.47-4.87.33-.5 1-.52 1.92-.59.97-.13.82-.98 1.91-1.01 3.86 5.18-5.14 9.03 14.04 5.78 2.92-.02 5.27-1.45 8.3-1.58.83 1.1 2.27.46 3.83.4 5.9-.79 11.18-3.01 17.24-3.1 3.36-.58 7.14-.74 10.2-1.84 2.74-.5 3.81-2.26 6.38-2.79 1.74-.91 2.64-2.22 3.84-3.31.98-.62 2.47-.74 3.19-1.53 4.01-1.24 2.18-5.28 7.01-5.4 2.61-.43 5.1-1.01 7.02-2.12 3.37-.16 6.66-.49 9.58-1.24 5.61-2.92 10.16-6.45 12.77-10.6 2.6-2.08 5.87-4.2 8.3-6.5 1.38-2.17 4.37-3.91 8.29-4.87 2.32-1.16 4.07-2.21 7.02-3.02.72-1.15.98.22 1.27.73 2.48.75 5.8-.44 8.3-1.1 6.85-1.05 11.7-3.53 18.5-4.3 1.33-.3 2.39-.97 3.84-1.03.92.7 2.1 1.6 3.83 1.78 3.68-.11 6.77.73 10.85.78 3.14-.15 6.04-.78 9.58-.61 7.69-1.87 17.2-2.29 23.62-5.3 3.52-.32 6.67-.63 9.58-1.55 2.43-.35 5.15.17 5.74-1.43.65 1.33 4.72 1.08 5.75.09 1.16 1.86 1.46-.58 4.46.36 5.75.57 10.8.45 15.96-1.13 1.81.41 2.94 1.1 5.1.73.7.39 1.7.1 2.56.11 1.06-.2 1.7.53 2.56-.05 1.65.91 4.56 0 6.38.15 3.65 0 7.29-.4 10.85-1.23.93-.7 2.56-.08 3.83-.54 1.7-.23 2.57-1 4.48-.98 3.2-1.67 7.22-2.77 11.49-3.42 1.76-1.07 3.7-.04 5.75-.92 4.38-1.33 9.63-1.73 14.04-2.52 4.33-1 8.8-1.3 12.76-2.62 4.14-.5 8.47-1.05 12.13-2.3" stroke="url(#pbotnt2_linear_12_301)" stroke-width="3"/></g></g></g></g><path d="m40.77 64 9.21-22.4h2.56L61.7 64h-3.97l-7.17-18.14h1.34L44.67 64h-3.9Zm4.54-4.32v-3.2h11.87v3.2H45.31Zm21.87-4.13v-3.2h5.6c.77 0 1.44-.15 2.01-.45.6-.32 1.07-.75 1.41-1.3.34-.58.51-1.26.51-2.02 0-.77-.17-1.43-.5-1.99a3.34 3.34 0 0 0-1.42-1.31 4.08 4.08 0 0 0-2.01-.48h-5.6v-3.2h5.8c1.4 0 2.66.29 3.77.86a6.5 6.5 0 0 1 2.65 2.44c.66 1.04 1 2.27 1 3.68 0 1.4-.34 2.63-1 3.68a6.5 6.5 0 0 1-2.65 2.43c-1.11.57-2.37.86-3.78.86h-5.8ZM64.65 64V41.6h3.68V64h-3.68Zm25.48-8.96L81.39 41.6h4.26l6.81 10.72h-1.98L97.3 41.6h4.19l-8.8 13.44h-2.56ZM89.62 64V52.74h3.68V64h-3.68Z" fill="white"/><path d="M48.26 105.32a7 7 0 0 1-3.5-.86 6.3 6.3 0 0 1-2.36-2.37 7.27 7.27 0 0 1-.83-3.52v-8.93h3.52v8.77c0 .74.12 1.38.35 1.92.26.51.62.9 1.09 1.18.49.28 1.06.42 1.73.42 1.02 0 1.8-.3 2.33-.9.56-.62.83-1.5.83-2.62v-8.77h3.52v8.93c0 1.34-.28 2.53-.86 3.55-.55 1-1.33 1.8-2.34 2.37-1 .55-2.16.83-3.48.83Zm18.45 0a6.54 6.54 0 0 1-3.14-.74 5.82 5.82 0 0 1-2.17-2.08 5.78 5.78 0 0 1-.77-2.97V95.1a5.6 5.6 0 0 1 2.97-5.02 6.26 6.26 0 0 1 3.1-.77 7.36 7.36 0 0 1 6.4 3.97c.67 1.2 1 2.55 1 4.06 0 1.5-.33 2.85-1 4.07a7.42 7.42 0 0 1-2.65 2.84 6.84 6.84 0 0 1-3.74 1.06Zm-.58-3.33c.85 0 1.6-.19 2.24-.57.66-.4 1.17-.96 1.54-1.67a5 5 0 0 0 .57-2.43 5 5 0 0 0-.57-2.43 3.91 3.91 0 0 0-1.54-1.63 4.1 4.1 0 0 0-2.24-.61 4.26 4.26 0 0 0-3.8 2.24c-.37.7-.55 1.51-.55 2.43 0 .92.18 1.73.54 2.43.37.7.88 1.26 1.54 1.67.66.38 1.42.57 2.27.57Zm-7.65 9.41V89.64H62v4.13l-.6 3.74.6 3.71v10.18h-3.52Zm27.3-6.4V83.24h3.53V105h-3.52Zm-3.67-12.16v-3.2h10.88v3.2H82.1Zm20.04 12.48a7.96 7.96 0 0 1-6.98-3.97 7.96 7.96 0 0 1-1.05-4.06 7.8 7.8 0 0 1 3.96-6.88 7.78 7.78 0 0 1 4.07-1.09c1.51 0 2.88.35 4.1 1.06a7.77 7.77 0 0 1 2.87 2.88 7.6 7.6 0 0 1 1.1 4.03c0 1.5-.37 2.85-1.1 4.06a8.02 8.02 0 0 1-2.88 2.91 8.02 8.02 0 0 1-4.1 1.06Zm0-3.4c.87 0 1.64-.18 2.3-.57.69-.4 1.2-.96 1.57-1.66.38-.7.58-1.5.58-2.4 0-.9-.2-1.69-.58-2.37a4.32 4.32 0 0 0-3.87-2.2 4.43 4.43 0 0 0-3.87 2.2 4.97 4.97 0 0 0-.55 2.37c0 .9.18 1.7.55 2.4.38.7.9 1.26 1.56 1.66.69.39 1.45.58 2.3.58Zm17.14-6.04v-3.2h14.11v3.2H119.3Zm5.44-9h3.26v14.76h-3.26V86.89Zm11.26 15.94 8.26-8.76c.68-.73 1.23-1.38 1.66-1.96.43-.57.74-1.12.93-1.63.19-.51.29-1.03.29-1.57 0-1-.34-1.78-1-2.33a3.54 3.54 0 0 0-2.46-.87 5 5 0 0 0-2.82.8 7.07 7.07 0 0 0-2.17 2.5l-2.56-2.11a9.28 9.28 0 0 1 3.23-3.43 8.3 8.3 0 0 1 4.45-1.18c1.38 0 2.6.28 3.65.83a5.97 5.97 0 0 1 2.43 2.34c.57.98.86 2.12.86 3.42a7.47 7.47 0 0 1-1.47 4.74 27.2 27.2 0 0 1-2.2 2.56l-6.34 6.56-4.74.1Zm0 2.18v-2.18l3.17-1.12h12.03v3.3h-15.2Zm19.73 0 8.16-20.16h3.65L159.56 105h-3.84Zm-3.2-19.1v-3.3h15v2.24l-1.56 1.06h-13.44Zm21.71 5.44a4.54 4.54 0 0 1-3.94-2.24c-.4-.69-.6-1.45-.6-2.3 0-.86.2-1.62.6-2.28.41-.68.95-1.23 1.64-1.63.68-.4 1.45-.61 2.3-.61a4.52 4.52 0 1 1 0 9.06Zm0-2.72c.53 0 .96-.17 1.28-.52.32-.34.48-.77.48-1.3 0-.54-.17-.97-.51-1.29a1.63 1.63 0 0 0-1.25-.51c-.51 0-.93.17-1.25.51-.32.32-.48.75-.48 1.28 0 .54.16.97.48 1.31.32.35.74.52 1.25.52Zm9.38 16.7a4.54 4.54 0 0 1-3.94-2.24c-.4-.68-.6-1.45-.6-2.3 0-.86.2-1.61.6-2.28a4.43 4.43 0 0 1 3.94-2.24c.85 0 1.62.2 2.3.61a4.52 4.52 0 0 1-2.3 8.45Zm0-2.72c.53 0 .96-.17 1.28-.51.34-.34.5-.78.5-1.31a1.74 1.74 0 0 0-1.8-1.8c-.5 0-.91.17-1.23.52a1.8 1.8 0 0 0-.48 1.28c0 .53.16.97.48 1.3.32.35.73.52 1.25.52ZM170 105l14.36-22.4h3.5L173.48 105h-3.48Z" fill="#DF1CFF"/><defs><filter id="filter0_f_12_301" x="-4.22" y="147.43" width="677.7" height="330.94" filterUnits="userSpaceOnUse" color-interpolation-filters="sRGB"><feFlood flood-opacity="0" result="BackgroundImageFix"/><feBlend mode="normal" in="SourceGraphic" in2="BackgroundImageFix" result="shape"/><feGaussianBlur stdDeviation="1" result="effect1_foregroundBlur_12_301"/></filter><linearGradient id="pbotnt0_linear_12_301" x1="353.5" y1="80" x2="380.5" y2="474.5" gradientUnits="userSpaceOnUse"><stop stop-color="#FF75F9"/><stop offset="1" stop-color="#232323"/></linearGradient><linearGradient id="pbotnt1_linear_12_301" x1="1000.09" y1="15.56" x2="206.21" y2="670.81" gradientUnits="userSpaceOnUse"><stop stop-color="white"/><stop offset=".47" stop-color="#E658FF"/><stop offset="1" stop-color="#AA13D0"/></linearGradient><linearGradient id="pbotnt2_linear_12_301" x1="1000.09" y1="15.56" x2="206.21" y2="670.81" gradientUnits="userSpaceOnUse"><stop stop-color="white"/><stop offset=".47" stop-color="#E658FF"/><stop offset="1" stop-color="#AA13D0"/></linearGradient></defs></svg>