<svg width="681" height="538" viewBox="0 0 681 538" fill="none" xmlns="http://www.w3.org/2000/svg"><rect x="5" width="672" height="538" rx="20" fill="#232323"/><mask id="mask0_12_302" style="mask-type:alpha" maskUnits="userSpaceOnUse" x="5" y="0" width="672" height="538"><rect x="5" width="672" height="538" rx="20" fill="#0F103C"/></mask><g mask="url(#mask0_12_302)"><line x1="527.59" y1=".48" x2="527.59" y2="537.43" stroke="#282828"/><line x1="453" y1=".48" x2="453" y2="537.43" stroke="#282828"/><line x1="602.16" y1=".48" x2="602.16" y2="537.43" stroke="#282828"/><line x1="676.75" y1=".48" x2="676.75" y2="537.43" stroke="#282828"/><line x1="378.42" y1=".48" x2="378.42" y2="537.43" stroke="#282828"/><line x1="303.83" y1=".48" x2="303.83" y2="537.43" stroke="#282828"/><line x1="229.25" y1=".48" x2="229.25" y2="537.43" stroke="#282828"/><line x1="154.67" y1=".48" x2="154.67" y2="537.43" stroke="#282828"/><line x1="80.08" y1=".48" x2="80.08" y2="537.43" stroke="#282828"/><line x1="5.5" y1=".48" x2="5.5" y2="537.43" stroke="#282828"/><line x1="5" y1="-.02" x2="899.68" y2="-.02" stroke="#282828"/><line x1="5" y1="76.69" x2="899.68" y2="76.69" stroke="#282828"/><line x1="5" y1="153.4" x2="899.68" y2="153.4" stroke="#282828"/><line x1="5" y1="230.1" x2="899.68" y2="230.1" stroke="#282828"/><line x1="5" y1="306.81" x2="899.68" y2="306.81" stroke="#282828"/><line x1="5" y1="383.52" x2="899.68" y2="383.52" stroke="#282828"/><line x1="5" y1="460.23" x2="899.68" y2="460.23" stroke="#282828"/><line x1="5" y1="536.93" x2="899.68" y2="536.93" stroke="#282828"/></g><path opacity=".7" d="M18.81 505.38c-9.52 0-8.1-17.34-13.81-17.34V516h671V153c-9.52 0-11.43 24.76-22.86 24.76s-10.95-16.27-23.81-16.27-8.57 23-25.24 23c-16.67 0-18.1-9.2-38.57-9.2-20.48 0-42.86 31.49-65.25 31.49-22.38 0-20-20.52-41.43-20.52s-27.62 82.08-61.43 96.23c-33.81 14.15-44.77 50.59-67.63 50.59-22.85 0-26.19-9.9-39.52-9.9-13.34 0-19.53 28.3-40 28.3-20.48 0-35.72 39.27-53.82 39.27s-31.43-24.77-40.95-24.77c-9.53 0-9.53 35.73-18.1 35.73-8.57 0-2.86-46.34-11.9-46.34-9.05 0-4.3 20.52-10.96 20.52-6.66 0-5.71-6.72-15.24-6.72-9.52 0-10 65.1-23.8 65.1-13.82 0-12.87-11.68-22.39-11.68-9.52 0-11.43 45.64-21.43 54.13-10 8.49-3.33 28.66-12.86 28.66Z" fill="url(#pbotnt0_linear_12_302)" fill-opacity=".6"/><g style="mix-blend-mode:screen"><path d="M5 488.04c5.71 0 4.29 17.34 13.81 17.34 9.53 0 2.86-20.17 12.86-28.66 10-8.5 11.9-54.13 21.43-54.13 9.52 0 8.57 11.67 22.38 11.67 13.81 0 14.29-65.1 23.81-65.1 9.53 0 8.57 6.73 15.24 6.73s1.9-20.52 10.95-20.52c9.05 0 3.34 46.34 11.91 46.34s8.57-35.73 18.1-35.73c9.52 0 22.86 24.77 40.95 24.77 18.1 0 33.34-39.27 53.81-39.27 20.48 0 26.67-28.3 40-28.3 13.34 0 16.68 9.9 39.53 9.9 22.86 0 33.82-36.44 67.63-50.6 33.81-14.14 40-96.22 61.43-96.22s19.05 20.52 41.43 20.52c22.39 0 44.77-31.5 65.25-31.5 20.47 0 21.9 9.2 38.57 9.2s12.38-22.99 25.24-22.99c12.86 0 12.38 16.27 23.81 16.27 11.43 0 13.34-24.76 22.86-24.76" stroke="url(#pbotnt1_linear_12_302)" stroke-width="3"/><g filter="url(#filter0_f_12_302)"><path d="M5 488.04c5.71 0 4.29 17.34 13.81 17.34 9.53 0 2.86-20.17 12.86-28.66 10-8.5 11.9-54.13 21.43-54.13 9.52 0 8.57 11.67 22.38 11.67 13.81 0 14.29-65.1 23.81-65.1 9.53 0 8.57 6.73 15.24 6.73s1.9-20.52 10.95-20.52c9.05 0 3.34 46.34 11.91 46.34s8.57-35.73 18.1-35.73c9.52 0 22.86 24.77 40.95 24.77 18.1 0 33.34-39.27 53.81-39.27 20.48 0 26.67-28.3 40-28.3 13.34 0 16.68 9.9 39.53 9.9 22.86 0 33.82-36.44 67.63-50.6 33.81-14.14 40-96.22 61.43-96.22s19.05 20.52 41.43 20.52c22.39 0 44.77-31.5 65.25-31.5 20.47 0 21.9 9.2 38.57 9.2s12.38-22.99 25.24-22.99c12.86 0 12.38 16.27 23.81 16.27 11.43 0 13.34-24.76 22.86-24.76" stroke="url(#pbotnt2_linear_12_302)" stroke-width="3"/></g></g><path d="m44.77 63 9.21-22.4h2.56L65.7 63h-3.97l-7.17-18.14h1.34L48.67 63h-3.9Zm4.54-4.32v-3.2h11.87v3.2H49.31Zm21.87-4.13v-3.2h5.6c.77 0 1.44-.15 2.01-.45.6-.32 1.07-.75 1.41-1.3.34-.58.51-1.26.51-2.02 0-.77-.17-1.43-.5-1.99a3.34 3.34 0 0 0-1.42-1.31 4.08 4.08 0 0 0-2.01-.48h-5.6v-3.2h5.8c1.4 0 2.66.29 3.77.86a6.5 6.5 0 0 1 2.65 2.44c.66 1.04 1 2.27 1 3.68 0 1.4-.34 2.63-1 3.68a6.5 6.5 0 0 1-2.65 2.43c-1.11.57-2.37.86-3.78.86h-5.8ZM68.65 63V40.6h3.68V63h-3.68Zm25.48-8.96L85.39 40.6h4.26l6.81 10.72h-1.98l6.82-10.72h4.19l-8.8 13.44h-2.56ZM93.62 63V51.74h3.68V63h-3.68Z" fill="white"/><path d="M52.26 104.32a7 7 0 0 1-3.5-.86 6.3 6.3 0 0 1-2.36-2.37 7.27 7.27 0 0 1-.83-3.52v-8.93h3.52v8.77c0 .74.12 1.38.35 1.92.26.51.62.9 1.09 1.18.49.28 1.06.42 1.73.42 1.02 0 1.8-.3 2.33-.9.56-.62.83-1.5.83-2.62v-8.77h3.52v8.93c0 1.34-.28 2.53-.86 3.55-.55 1-1.33 1.8-2.34 2.37-1 .55-2.16.83-3.48.83Zm18.45 0a6.54 6.54 0 0 1-3.14-.74 5.82 5.82 0 0 1-2.17-2.08 5.78 5.78 0 0 1-.77-2.97V94.1a5.6 5.6 0 0 1 2.97-5.02 6.26 6.26 0 0 1 3.1-.77 7.36 7.36 0 0 1 6.4 3.97c.67 1.2 1 2.55 1 4.06 0 1.5-.33 2.85-1 4.07a7.42 7.42 0 0 1-2.65 2.84 6.84 6.84 0 0 1-3.74 1.06Zm-.58-3.33c.85 0 1.6-.19 2.24-.57.66-.4 1.17-.96 1.54-1.67a5 5 0 0 0 .57-2.43 5 5 0 0 0-.57-2.43 3.91 3.91 0 0 0-1.54-1.63 4.1 4.1 0 0 0-2.24-.61 4.26 4.26 0 0 0-3.8 2.24c-.37.7-.55 1.51-.55 2.43 0 .92.18 1.73.54 2.43.37.7.88 1.26 1.54 1.67.66.38 1.42.57 2.27.57Zm-7.65 9.41V88.64H66v4.13l-.6 3.74.6 3.71v10.18h-3.52Zm27.3-6.4V82.24h3.53V104h-3.52Zm-3.67-12.16v-3.2h10.88v3.2H86.1Zm20.04 12.48a7.96 7.96 0 0 1-6.98-3.97 7.96 7.96 0 0 1-1.05-4.06 7.8 7.8 0 0 1 3.96-6.88 7.78 7.78 0 0 1 4.07-1.09c1.51 0 2.88.35 4.1 1.06a7.77 7.77 0 0 1 2.87 2.88 7.6 7.6 0 0 1 1.1 4.03c0 1.5-.37 2.85-1.1 4.06a8.02 8.02 0 0 1-2.88 2.91 8.02 8.02 0 0 1-4.1 1.06Zm0-3.4c.87 0 1.64-.18 2.3-.57.69-.4 1.2-.96 1.57-1.66.38-.7.58-1.5.58-2.4 0-.9-.2-1.69-.58-2.37a4.32 4.32 0 0 0-3.87-2.2 4.43 4.43 0 0 0-3.87 2.2 4.98 4.98 0 0 0-.55 2.37c0 .9.18 1.7.55 2.4.38.7.9 1.26 1.56 1.66.69.39 1.45.58 2.3.58Zm17.14-6.04v-3.2h14.11v3.2H123.3Zm5.44-9h3.26v14.76h-3.26V85.89ZM139.99 96l7.97-14.4h4.16L143.96 96h-3.97Zm0 2.24V96l1.57-1.06h15.8v3.3H140Zm10.62 5.76V89.34h3.62V104h-3.62Zm15.51.32c-1.5 0-2.85-.27-4.06-.8a8.32 8.32 0 0 1-3.04-2.4l2.5-2.5a4.72 4.72 0 0 0 1.88 1.64c.81.4 1.7.6 2.66.6.91 0 1.7-.17 2.37-.5a3.98 3.98 0 0 0 2.11-3.58c0-.87-.2-1.6-.58-2.19-.36-.6-.9-1.05-1.6-1.37a5.54 5.54 0 0 0-2.5-.52c-.38 0-.77.04-1.18.1-.4.04-.77.12-1.09.22l1.64-2.1a9.78 9.78 0 0 1 2.88-.62 5.88 5.88 0 0 1 5.3 3.17c.56.98.84 2.15.84 3.49 0 1.45-.34 2.73-1.02 3.84a6.99 6.99 0 0 1-2.85 2.6 9.26 9.26 0 0 1-4.26.92Zm-2.53-11.3v-2.17l5.99-6.98 4.41-.1-6.24 7.17-4.16 2.08Zm-3.45-8.12v-3.3h13.85v2.18l-3.16 1.12h-10.7Zm21.22 5.44a4.54 4.54 0 0 1-3.94-2.24c-.4-.69-.6-1.45-.6-2.3 0-.86.2-1.62.6-2.28a4.43 4.43 0 0 1 3.94-2.24 4.52 4.52 0 1 1 0 9.06Zm0-2.72c.53 0 .95-.17 1.27-.52.33-.34.49-.77.49-1.3 0-.54-.18-.97-.52-1.29a1.63 1.63 0 0 0-1.25-.51c-.5 0-.92.17-1.24.51-.32.32-.48.75-.48 1.28 0 .54.16.97.48 1.31.32.35.73.52 1.24.52Zm9.37 16.7a4.54 4.54 0 0 1-3.94-2.24c-.4-.68-.6-1.45-.6-2.3 0-.86.2-1.61.6-2.28.41-.68.96-1.22 1.64-1.63.68-.4 1.45-.6 2.3-.6a4.52 4.52 0 1 1 0 9.06Zm0-2.72c.53 0 .96-.17 1.28-.51.34-.34.51-.78.51-1.31a1.74 1.74 0 0 0-1.8-1.8c-.5 0-.92.17-1.24.52a1.8 1.8 0 0 0-.48 1.28c0 .53.16.97.48 1.3.32.35.74.52 1.25.52Zm-13.6 2.4 14.37-22.4h3.49L180.62 104h-3.49Z" fill="#2FFF0D"/><defs><filter id="filter0_f_12_302" x="0" y="146.5" width="681" height="365.38" filterUnits="userSpaceOnUse" color-interpolation-filters="sRGB"><feFlood flood-opacity="0" result="BackgroundImageFix"/><feBlend mode="normal" in="SourceGraphic" in2="BackgroundImageFix" result="shape"/><feGaussianBlur stdDeviation="2.5" result="effect1_foregroundBlur_12_302"/></filter><linearGradient id="pbotnt0_linear_12_302" x1="340.5" y1="-95.73" x2="340.5" y2="538.12" gradientUnits="userSpaceOnUse"><stop stop-color="#18FF82"/><stop offset="1" stop-color="#232323" stop-opacity="0"/></linearGradient><linearGradient id="pbotnt1_linear_12_302" x1="676" y1="210.86" x2="12.56" y2="428.95" gradientUnits="userSpaceOnUse"><stop stop-color="#1CFFA0"/><stop offset=".19" stop-color="#00FF94"/><stop offset="1" stop-color="#13D05F"/></linearGradient><linearGradient id="pbotnt2_linear_12_302" x1="676" y1="210.86" x2="12.56" y2="428.95" gradientUnits="userSpaceOnUse"><stop stop-color="#1CFFA0"/><stop offset=".19" stop-color="#00FF94"/><stop offset="1" stop-color="#13D05F"/></linearGradient></defs></svg>