<svg viewBox="0 0 676 538" fill="none" xmlns="http://www.w3.org/2000/svg"><rect x="2" width="672" height="538" rx="20" fill="#232323"/><mask id="mask0_54_48" style="mask-type:alpha" maskUnits="userSpaceOnUse" x="2" y="0" width="672" height="538"><rect x="2" width="672" height="538" rx="20" fill="#0F103C"/></mask><g mask="url(#mask0_54_48)"><line x1="524.59" y1=".48" x2="524.59" y2="537.43" stroke="#282828"/><line x1="450" y1=".48" x2="450" y2="537.43" stroke="#282828"/><line x1="599.16" y1=".48" x2="599.16" y2="537.43" stroke="#282828"/><line x1="673.75" y1=".48" x2="673.75" y2="537.43" stroke="#282828"/><line x1="375.42" y1=".48" x2="375.42" y2="537.43" stroke="#282828"/><line x1="300.83" y1=".48" x2="300.83" y2="537.43" stroke="#282828"/><line x1="226.25" y1=".48" x2="226.25" y2="537.43" stroke="#282828"/><line x1="151.67" y1=".48" x2="151.67" y2="537.43" stroke="#282828"/><line x1="77.08" y1=".48" x2="77.08" y2="537.43" stroke="#282828"/><line x1="2.5" y1=".48" x2="2.5" y2="537.43" stroke="#282828"/><line x1="2" y1="-.02" x2="896.68" y2="-.02" stroke="#282828"/><line x1="2" y1="76.69" x2="896.68" y2="76.69" stroke="#282828"/><line x1="2" y1="153.4" x2="896.68" y2="153.4" stroke="#282828"/><line x1="2" y1="230.1" x2="896.68" y2="230.1" stroke="#282828"/><line x1="2" y1="306.81" x2="896.68" y2="306.81" stroke="#282828"/><line x1="2" y1="383.52" x2="896.68" y2="383.52" stroke="#282828"/><line x1="2" y1="460.23" x2="896.68" y2="460.23" stroke="#282828"/><line x1="2" y1="536.93" x2="896.68" y2="536.93" stroke="#282828"/></g><path opacity=".7" d="M2.48 401.34 2 403.8v129.7h672V249.8l-.78.78-.48.28-.48.14-.48.5-.48 1.71-.48-1.22-.96 3.72-.48-.93-.48 1.56-.48-.18-.48.6-.48-1.04-.48-1.49-.48-.55-.48.93-.48.35-.48-.26-.48.67-.48-.1-.48.46-.48-.53-.48-2.1-.48.84-.48-.05-.48-.12-.48-.45-.47.16-.97 2.48-.47-1.17-.48-.75-.49-.32-.47.34-.48.24-.48-.58-.48.25-.48-.28-.48-1.28-.48.88-.48 3.52-.48-1.15-.48-.94-.48 2.18-.48-4.07-.48 1.59-.48.29-.48-1.87-.48.96-.48-4.54-.48-.45h-.48l-.48.4-.48 4.71-.48.9-.48 2.66-.48-3.96-.96.5-.48.04-.48-.1-.48 1.1-.48.18-.48-1.96-.48 3-.48-1.96h-.48l-.48-4.56-.48.3-.48-.27-.48 1.43-.48.76-.47 1.69-.48-.18-.49-5.4-.47-2-.49-1.39h-.47l-.48-.85-.48-1.1-.48-.26-.48 1.01-.48-.9-.48 2.27-.48-1.77-.48 1.12-.48.73-.48-.68-.48 2.03-.48.55-.48-.17-.48-1.31-1.44-1.06-.48.17-.48 2.45-.48 5.64-.48.34-.48-4.83-.96.96-.48-1.67-.48 1.92-.48-3-.48.3-.48 5.1-.48-1.04-.48 2.18h-.48l-.96 6.32-.48-1.54-.48-3.54-.48-1.75-.48.88-.48-.63-.47 1.55-.49.74-.47-.55-.49 2.57-.48.7-.47.34-.97-2.59-.47-.84-.48-2.43-.48-.2-.48-3.5-.48.92-.48 2.31-.48 3.56-.48-2.37-.48.82-.48 1.2-.48 3.42-.48-2.13-.48 1.56-.48-6.19-.48 4.56-.48.62-.48-3.65-1.44-10.96-.48.12-.48-.27-.48-1.31-.48 1.68-.48-.7-.48.44-.48-1.95-.48 1.72-.48-4.34-.48.25-.48 4.41-.96 2.23-.48-1.7-.48-4.31-.48-.33-.48 1.6-.48-1.95-.48 1.42-.48 1.87-.48-1.68-.48 3.63-.47-5.87-.49 3-.47-4.71-.97 5.63-.47 4.54-.48-3.1-.48-13.95-.48 1.5-.48-10.34-.48-.42-.48-1.92-.48-.06-.48-5.63-.48 4.42-.48-.69-.48-.91-.48 1.8-.96-7.62-.48.24-.48 2.46-.48-4.05-.48.47-.48-.71-.48.13-.48-.41-.48-2.19-.48.05-.48 1.45-.48 2.22-.48-1.96-.48.1-.48.49-.48-.78-.96 2.65-.48-4.9-.48-1.55-.48 1.33-.48-2.7-.48 2.7-.47-5.37-.49-2.68-.48-.92-.48 1.32-.48-.56-.47 2.2-.48-.61-.96 2.95-.48-.75-.96 5.14-.48-.91-.96 2.35-.48 1.96-.48.77-.48-1.12-.48 1.01-.48 1.7-.48-.29-.48 2.26-.48.21-.48 1.26-.48-1.83-.48.4-.96-3.6-.48 3.03-.48 1.86-.48.08-.48-2.92-.48.97-.48-3.64-.96-1.82-.48.26-.48 5.83-.48-2.84-.48.32-.48 3.1-.48-.18-.48-1.81-.48 2.2-.48-4.28-.48-3.1-.48-.36-.48-.93-.48-4.3-.48-.38-.47 3.14-.49.32-.48-1.35-.47-.05-.49-3.15-.47-2.09-.48.71-.48-.66-.48 2.23-.48 1.52-.48.76-.48 3.8-.48.89-.48-2.57-.48.09-.48 1.86-.48-.34-.48 1.97-.48 1.13-.48-.86-.48.39-.48.7-.48-2.11-.48 2.5-.96-13.02-.96-3.87-.48-1.06-.48-2-.48-.1-.48.68-.48 1.49-.48-1.69-.96 4.76-.48-1.4-.48 1.1-.48-2.06-.48-3.22-.48-.1-.48-3.42-.48.14-.48.56-.48-.52-.48 3.24-.48-.37-.47 1.24-.49-.9-.47-4.03-.48-.08-.97 2.07-.47-.68-.48 3.09-.48.92-.48 2.5-.48-.6-.48-.86-.48 1.5-.48-.43-.48-1.42-.48 1.85-.48 1.09-.48-5.8h-.48l-.48 2.91-.48-2.23-.48-4.48-.48 1.32-.48-.37-.48.58-.48-2.52-.48-6.21-.48-2.72-.48-1.23-.48-.24-.48-.62-.48.06-.48-.34-.48 1.17-.48-4.06-1.44 5.6-.48-1.18-.48.09-.96 5.41-.48-1.92-.48 3.31-.48-3.36-.48-1.18-.48.8-.48-.08-.47-.97-.49 1.85-.47-2.46-.48.56-.49.94-.47.71-.48.94-.96-1.82-.48-.05-.48 3.2-.48 1.44-.48-1.65-.48 4.44-.96 4.81-.48-4.4-.48-.3-.48 2.9-.48-.71-.48.53-.48.05-.48-1.1-.48 2.12-.48.55-.48-.16-.48-.48-.96.26-.48.39-.48 1.3-.48-1.5-.48.08-.48-2.57-.48.4-.48.66-.48.12-.48-.27-.48 1.67-.47-.9-.49 1.53-.48 1.15-.47 4.77-.49 1.66-.47 1.08-.48-2.15-.49-1.7-.47-.54-.48-1.28-.49-2.04-.47 2.82-.48 7.52-.48-4.18-.48-8.16-.48-1.41-.48.75-.48-3.09-.48-.48-.48 1.35-.48 1.82-.48-2.28-.48 2.52-.48.98-.48-1.38-.96 5.86-.48-9.22-.48.37-.48 2.24-.48 1.04-.48 1.87-.48-.14-.48 2.05-.48.3-.48-1.08-.48.4-.48.17-.48 3.62-.48-4.12-.48 2.52-.48-2.53-.48 1.42-.48 1.03-.48.6-.48 1.81-.48 3.26-.48 1.93-.48-2.15-.48-1.17-.47.3-.49 1.03-.48 4.24-.47-.8-.49 2.77-.47.94-.48 3.4-.49-2.64-.95 3.9-.48 1.02-.48 1.86-.48-.65-.48 1-.48-1.34-1.44 5.5-.48.18-.48 1.8-.48-.38-.48.8-.48 1.05-.48 3.53-.48 1.7-.48 4.86-.48-3.03-.48-4.04-.48.2-.48-.47-.48-3.72-.48-1.6-.48.91-.48-.71-.48-2.43-.48 1.56-.48-.27-.48 2.12-.48-3.85-.48.89-.48 3.1-.48-.61-.48 1.61-.48 2.17-.48.67-.48-2.55-.48 1-.48 3.4-.48 1.36-.48 2.1-.47.72-.49-5.47-.47.72-.48 4.3-.48-2.25-.48-11.99-.48.96-.48-1.11-.48-3.52-.48.5-.48-1.6-.48-.2-.48 1.13-.48 3.42-.48-1.64-.96-6.1-.48 2.59-.48-.06-.48-4.7-.48 1.1-.48-.72-.48-4.13-.48 3.1-.48 2.19-.48-.9-.48 3.36-.48 1.54-.48-2.84-.48-6.18-.48-2.01-.48 4.89-.48-.56-.48 9.32-.48-7.67-.48-3.34-.48-6.96-.48 7.38-.48-21.13-.48 3.6-.48-2.98-.48.56-.47-3.8-.49 4.12-.48 1.35-.47-8.07-.49 4.41-.47-3.98-.48 1.28-.49.41-.47-.62-.48 2.79-.48 5.78-.48-2.97-.48 2.28-.48-.94-.48.26-.48 2.72-.48.28-.48-.9-.48 4.04-.48 7.11-.48 1.26-.48-3.7-.48-.5-.48-2.84-.48-1.88-.48 1.7-.48-3.73-.48-2.75-.48-1.04-.48.87-.48 2.15-.48 1.03-.48 1.88-.48-.52-.48.72-.48 1.12-.48.44-.48 3.52-.48-3.63-.48 1.23-.48 1.86-.48 4.5-.48-2.68-.48 1.4-.48.03-.48 1.91-.48 1.1-.48 2.21-.48.17-.48 3.4-.47 5.55-.49.38-.48-4.37-.47 2.74-.48-1.65h-.48l-.48-1.46-.48 1.3-.48-1-.48 2.47-.48.13-.48-1.36-.48.22-.96 4.9-.48 4.7-.48-.57-.48 2.59-.48 4.88-.48 2.62-.48-.14-.48-.77-.48.07-.48 3.7-.48.48-.48 5.1-.48-1.04-.48 1.25-.48.62-.48-3.54-.48 1.73-.48-6.34-.48-1.33-.48 2.21-.48-3.13-.48 5.17-.48 1.11-.48 3.51-.48-.16-.48-.67-.48-3.2-.48 5.59-.48 3.05-.48 6.32-.48 2.28-.95 8.66-.49 1.77-.47-.56-.48 4.44-.48.68-.48 3.11-.48-.51-.48 1.73-.48.03-.48 3.77-.48 1.3-.48 4.24-.48-2.82-.48 2-.48-2.34-.48 2.01-.48 2.7-.48 5.44-.48-8.23-.48 2.1-.48-2.73-.48.8-.48 2.77-.48 4-.48 1.29-.48 1.65-.48 4.51-.48.81-.48-6.75-.48-.3-.48 3.38-.48.48-.48-1.73-.48 3.53-.48 2.59-.48.2-.48 4.07-.48 1.47-.48-.13-.48 2.7-.48.04-.48.6-.48 3.1-.48-.21-.96 2.82-.47 3.91-.49-5.61-.48 2.06-.47-2.86-.49-.01-.48.7-.47 1.22-.48-.4-.48 2.58-.48.41-.48.74-.48 2.25-.48 1.51-.96-3.23-.48.68-.48-3.82-.48.88-.48-1.3-.48 4.3-.48-5.25-.48.69-.48 1.99-.48-3.61-.48 2.69-.48.1-.48 2.72-.48 1-.48-6.77-.48-2.54-.48 3.54-.48 5.2-.48-1.35-.48 4.9-.96 3.87-.48-1.92-.96 6.09-.48-.2-.48-.61-.48 3.57-.48-1.2-.48-1.82-.48 2.05-.48-.36-.48 2.4-.48-2.67-.48 4.75-.48 2.12-.47-.22-.48-.88-.49-2.54-.47-.02-.48.95-.48-1.57-.48-.93-.48-2.07-.48.62-.48-.93-.48-.76-.48.95-.48-.42-.48 1.68-.48 2.5-.48-2.88-.48-.56-.48.94-.48.5-.48-2.6-.48-.47-.96-1.04-.48-.14-.48 2.78-.48.74-.48 1.22-.48.62-.48.88-.48-3.18-.48-.06-.48.98-.48.45-.48-2.22-.48-1.51-.48.97-.48 1.73-.48-1.06-.48.08-.48-.18-.47 1.26-.49 4.94-.47-3.66-.48 1.09-.49-5.2-.47-1.8-.48-.5-.49.25-.47.9-.48.06-.48-3.3-.48.8-.48-2.58-.48 2.27-.48 1.05-.96 4.64-.48-.9-.48-.2-.48 2.97-.48-6.72-.48.8-.48-6.3-.48-3.1-.48 1.85-.48.08-.48 1.74-.48 2.31-.48 2.98-.48-3.02-.48 1.75-.48-2.87-.48 1.16-.48.4-.48 3.1-.48-2.6-.48 3.9-.48-2.86-.48-1.42-.48.14-.48 1.99-.48.93-.48.05-.48.44-.47 4.87-.49-1.45-.48 1.5-.47.3-.49 3.6-.48-.86-.47.63-.49 1.33-.47.27-.48 1.8-.49-3.02-.47 4.03-.48 1.63-.49.63-.47.04-.96 2.95-.48-.11-.48 2.31H275l-.48.52-.48 1.71-.48 2.58-.48-4.57-.48-.1-.48-.86-.48.06-.48-1.5-.96 1.15-.48-.56-.48.47-.48.78-.48-.55-.48-.37-.48 3.22-.48.41-.48 7.95-.48-1.62-.48 2.33-.48-.04-.48-1.68-.48 5.74-.48-1.42-.96 3.94-.48-6.09-.48-1.14-.48.25-.48-3.57-.48 2.11-.48 5.76-.48-1.54-.47 1.91-.97-2.94-.47.15-.49 1.11-.47-.66-.48-2.66-.48.98-.48 3.88-.48-11.1-.48.76-.48-2.12-.48.1-.48 1.21-.48.1-.48-2.52-.48.5-.48 4.32-.48-4.68-.48 7.45-.48-5.66-.48 7.97-.48.38-.48 6.46-.48.2-.48 2.62-.48 3.76-.48-4.09-.48-1.61-.48 4.92-.48-6.55-.48-2.36-.96 5.1-.48.61-.48 2.5-.48-3.46-.48-.12-.48 3.96-.48 3.06-.48-1.6-.48-11.42-.47-1.5-.97 8.38-.47-2.33-.48-.67-.48-.44-.48-2.95-.96 7.6-.48-6.38-.48 7.59-.48 1.26-.48.84-.48 2.17-.48 1.74-.48 2.4-.96 11.2-.48.82-.48-4.21-.48-3.22-.48 6.22-.48-.88-.48 7.15-.48-3.26-.48.04-.48-.66-.48.63-.48 1.38-.48-5.46-.48.45-.48 4.18-.48-2.64-.48 8.5-.48-1.2-.96 2-.48 1.88-.48.7-.48 1.34-.48 3.4-.48-4.46-.48.09-.48-3.9-.48 2.58-.48-1.1-.48 1.28-.48 6.28-.47-6.58-.49.47-.47-.08-.49 8.54-.48 1.24-.47 2.93-.49-5.29-.47 2.5-.48-4.04-.48 10.77-.48-41.82-.48-3.67-.48-.03-.48.74-.48-17.8-.48-5.45-.48.24-.48 2.68-.48.71-.48 4.28-.48 8.96-.48-3.43-.48-1.39-.48.33-.48 3.36-.48-15.05-.48-4.92-.48-3.11-.48 2.2-.48-1.07-.48.25-.48-.35-.48-2.48-.48 2.64-.48-.8-.48-.53-.48-3.04-.48 2.49-.48-.85-.48 2.55-.48 3.25-.48-.73-.48 3.74-.48-1.13-.47 1.35-.97 11.73-.47-.55-1.45 7.64-.47-3.15-.48 5.9-.48-.42-.49 3.54-.47 1.45-.48 3.24-.48-1.2-.48-.44-.48-4.54-.48-.51-.48 2.04-.48-.1-.48-3.95-.48-1.32-.48 4.41-.48-2.08-.48 2.2-.48 13.03-.48-2.36-.48 2.81-.48.14-.48 3.17-.48-1.32-.48-.98-.48-.7-.48 5.8-.48.82-.48.13-.48 5.56-.48-3.33-.48.26-.96-2.68-.96 1.84-.48-.22-.48.96-.48-1.76-.48.97-.48-3.64-.48 1.21-.47 2.48-.49 4.67-.47-.3-.48 5.15-.49-6.25-.47-3.8-.48 1.79-.49-4.07-.47-.22-.49-3.06-.47-.38-.48-5.6-.48-2.56-.48.47-.48.18-.48.76-.48 1.94-.48-2.6-.48-.02-.48-3.1-.48.05-.48-2.59-.48 3.69-.48-2.01-1.44 7.34-.48-8.15-.48 2.78-.96-12.6-.96-4.05-.48-5.21-.48.03-.48-.97-.48-2.45-.48-.58-.48 1.96-.48 1-.48-3.46-.96 4.6-.48-2.57-.47-5.34-.97 2.91-.47 1.74-.49.05-.48 2.03-.47-.4-.48-1.52-.48-3.67-.48 6.45-.48.63-.48 5.52-.48-4.04-.49 10.35-.47 2.22-.48-5.4-.48-.8-.48.12-.48 1.32-.48-.44-.48-2.3-.48 4.69-.96-6.2-.48 2.56-.48 1.57-.48-.29-.96-7.13-.48 3-.48 4-.48 9.53-.48 2.52-.96 2.37-.48-2.3-.48 4.37-.48-1.25-.49 4.97-.48-1.17-.48.3-.48 1.36-.48-2.84-.48 2.62-.48-15.8-.48-4.7-.48-3.86-.96-1.6-.48.77-1.44 8.43-.48.7-.48 4.62-.48-.32-.48-.01-.48-1.13-.48-.82-.48.42-.49 3-.47 5.85-.49-2.36-.48-1.65-.48-2.1-.48.65-.48 2.54-.48-.66-.48.9-.48.07-.48-1.83-.48-6.9-.48-.15-.48.5-.48-1.27-.48-.86-.48 1.57-.49 2.21-.48-4.43-.48-3.59-.48.19-.48 5.35-.48 1.53-.48-2.45-.48 2.73-.48-9.07-.48-.97-.48-1.33-.48 2.22-.48.21-.48-4.3-.48-1.03-.49-.28-.48-4.48-.48 4.22-.48-1.25-.48 1.36-.48-1.12-.48-1.94-.48 2.2-.48-.67-.48-.89-.48.08-.48-5.51-.48 1.93-.48-.63-.48 4.86-.49-8.5-.48-1.07h-.48l-.48 5.12-.48-.02-.96 13.73-.48-17.05-.48.83-.48-7.25-.48-.7-.48 1.32-.48-4.06-.48-3.13-.48-.22-.48-.62-.48.4-.48-.63-.48.09-.49-2.91-.48 2-.48-.28-.48.45-.48-4-.48 1.02-.48 1.98-.48-6.12-.96-.16-.48.42-.48-.63-.48 3.3-.48 2-.48.09-.48.49-.48-2.22-.48 1-.48.2-.49 1-.48-.39-.48-1.47-.48 1.08-.48.78-.48 4.73-.48-2.27-.48-.43-.48 1.59-.48-.52-.48.57-.48-1.69-.48-4.94-.48 1.24-.48-1.27-.49 3.79-.48-3.37-.48-.67-.48-.03-.48 3.56-.48 1.63-.48 1.05-.48.46-.48 1.09-.48-3.87-.48.9-.48-1.5-.48 3.57-.48-1.65-.48-3.29-.49-.5-.95 9.34-.48 2.34-.49-.21-.48 5.63-.48 1.57-.48-1.9-.48 1.02-.48-1.1-.48-.04-.48-.39-.48-1.2-.48 1.4-.48-.07-.48-.67-.48 2.9-.48-3.73-.48-.03-.49-.65-.48.5-.48-3.21-.48-.1-.48-1.77-.48.72-.48-1.86-.48.03-.48 1.44-.48 1.92-.48-.6-.48.95-.48-.62-.48 1.78-.48-.26-.48.17-.49-4.52-.48 1.45-.48-1.13-.48-.05-.48.55-.48-.67-.48 2.23-.48-.44-.48.53-.48 7.93-.48.88-.48-.83-.48-.38-.48 3.78-.48-1.72-.49 8.81-.48.64-.48-3.5-.48-2.8-.48 6.88-.48 4.8-.48-3.26-.48.32-.48-.6-.48 1.62-.48-1.52-.48 3.95-.48.83h-.48l-.48-.53-.49 3.38-.48.09-.48.9-.48 3.38-.48-3.94-.48 1.94-.48 3.71-.48 12.9-.48-2.96-.48-1.15-.48 2.01-.48 3.31h-.48l-.48-.36-.48-1.67-.48 2.01-.49-14.78-.48 5.68-.48 1.09-.48-3.45-.48 2.9-.48-.4-.48 7.6-.48 4.16-.48-.78-.48 1.83-.48-2.03-.48-1.28-.48-.23-.48-.54-.48 3.13-.49 1.72-.48 11.2-.48-.45-.48-.76-.48 1.9-.48 1.49-.48-1.56-.48 2.77-.48 1.57-.48-2.17-.48.59-.48.27-.48-5.28-.48-.07-.48 1.72-.49.42-.95-.02-.48 1.08-.49-.12-.48-2.6-.48.65-.48-.46-.48 1.2-.48 2.37-.48-2.74-.48 7.8-.48-5.06-.48-2.05-.48-1.3-.48-8.6-.96 6.59-.48-.32-.48 3.71-.48.94-.48 1.62-.48-2.98h.22Z" fill="url(#pbotnt0_linear_54_48)" fill-opacity=".6"/><path d="m2 403.76.48-2.46.48 2.98.48-1.63.48-.93.48-3.71.48.31.96-6.57.48 8.58.48 1.3.48 2.05.48 5.06.48-7.8.48 2.75.48-2.37.47-1.2.49.46.48-.66.47 2.6.48.12.49-1.07.95.02.48-.42.49-1.73.47.08.48 5.28.48-.28.48-.59.48 2.18.48-1.57.48-2.77.48 1.55.48-1.47.48-1.91.48.75.48.46.48-11.2.48-1.72.48-3.13.48.54.48.23.48 1.28.48 2.03.48-1.83.48.77.48-4.16.48-7.59.48.4.48-2.9.48 3.45.48-1.09.48-5.68.48 14.78.48-2 .48 1.66.48.36h.48l.48-3.3.48-2.02.48 1.15.48 2.96.48-12.9.47-3.71.49-1.94.47 3.94.49-3.37.48-.9.47-.1.48-3.38.48.53h.48l.48-.83.48-3.94.48 1.52.48-1.63.48.6.48-.32.48 3.27.48-4.8.48-6.9.48 2.81.48 3.5.48-.63.48-8.81.48 1.72.48-3.79.48.39.48.83.48-.88.48-7.94.48-.52.48.43.48-2.22.48.67.48-.55.48.04.48 1.13.48-1.45.48 4.53.48-.17.48.26.48-1.79.48.63.48-.95.48.6.48-1.93.48-1.43.48-.03.48 1.85.47-.71.48 1.77.49.1.47 3.2.48-.49.48.65.49.03.47 3.73.48-2.9.48.67.48.07.48-1.4.48 1.2.48.39.48.03.48 1.1.48-1.01.48 1.9.48-1.58.48-5.62.48.2.48-2.33.96-9.34.48.5.48 3.29.48 1.65.48-3.56.48 1.5.48-.9.48 3.85.48-1.08.48-.47.48-1.04.48-1.63.48-3.56.48.03.48.67.48 3.37.48-3.8.48 1.28.48-1.24.48 4.94.48 1.68.48-.56.47.52.49-1.59.48.43.47 2.27.49-4.73.47-.78.48-1.08.48 1.47.48.38.48-1 .48-.2.49-.99.47 2.22.48-.5.48-.09.48-2 .48-3.3.48.64.48-.42.96.16.48 6.12.48-1.98.48-1.01.48 4 .48-.46.48.28.48-2 .48 2.9.48-.08.48.63.48-.4.48.62.48.21.48 3.14.48 4.06.48-1.31.48.69.48 7.25.48-.84.48 17.06.96-13.73.48.01.48-5.1h.48l.48 1.06.47 8.49.49-4.86.48.63.47-1.93.48 5.52.48-.08.49.89.47.67.48-2.21.48 1.95.48 1.12.48-1.36.48 1.25.48-4.22.48 4.47.48.28.48 1.04.48 4.3.48-.22.48-2.22.48 1.33.48.97.48 9.06.48-2.72.48 2.45.48-1.52.48-5.36.48-.19.48 3.6.48 4.42.48-2.21.48-1.57.48.86.48 1.28.48-.5.48.15.48 6.9.48 1.82.48-.08.48-.89.48.66.48-2.54.48-.65.48 2.1.48 1.65.47 2.36.49-5.84.48-3.01.47-.41.48.81.48 1.13.49.01.47.32.48-4.61.48-.71 1.44-8.42.48-.78.96 1.61.48 3.85.48 4.7.48 15.8.48-2.62.48 2.84.48-1.36.48-.3.48 1.17.48-4.97.48 1.25.48-4.37.48 2.3.96-2.37.48-2.52.48-9.53.48-4 .48-3 .96 7.14.48.29.48-1.58.48-2.56.96 6.2.48-4.69.48 2.3.48.44.48-1.31.48-.12.48.79.48 5.4.47-2.22.49-10.35.48 4.05.48-5.52.48-.63.48-6.45.48 3.66.47 1.54.48.39.48-2.04.48-.04.48-1.74.97-2.92.47 5.34.48 2.57.96-4.6.48 3.47.48-1 .48-1.96.48.57.48 2.46.48.97.48-.04.48 5.21.96 4.05.96 12.6.48-2.78.48 8.15 1.44-7.34.48 2 .48-3.68.48 2.6.48-.05.48 3.1.48.02.48 2.59.48-1.94.48-.76.48-.18.48-.46.48 2.54.48 5.61.47.38.49 3.05.47.23.49 4.07.48-1.8.47 3.8.49 6.26.47-5.15.48.3.48-4.67.48-2.48.48-1.21.48 3.63.48-.96.48 1.76.48-.96.48.22.96-1.84.96 2.68.48-.26.48 3.32.48-5.55.48-.13.48-.83.48-5.8.48.71.48.98.48 1.31.48-3.16.48-.14.48-2.81.48 2.36.48-13.02.48-2.21.48 2.08.48-4.4.48 1.31.48 3.96.48.09.48-2.04.48.51.48 4.54.48.43.48 1.21.48-3.24.47-1.45.49-3.54.48.43.47-5.9.48 3.15 1.45-7.64.47.54.97-11.73.47-1.35.48 1.14.48-3.75.48.74.48-3.25.48-2.55.48.85.48-2.49.48 3.04.48.53.48.8.48-2.64.48 2.48.48.35.48-.25.48 1.07.48-2.2.48 3.1.48 4.92.48 15.06.48-3.37.48-.32.48 1.38.48 3.43.48-8.96.48-4.27.48-.72.48-2.67.48-.24.48 5.44.48 17.8.48-.73.48.02.48 3.68.48 41.8.48-10.76.48 4.04.47-2.5.49 5.3.47-2.94.48-1.24.49-8.55.47.08.48-.47.48 6.59.48-6.28.48-1.3.48 1.12.48-2.58.48 3.9.48-.09.48 4.47.48-3.41.48-1.35.48-.69.48-1.89.96-2 .48 1.22.48-8.51.48 2.64.48-4.18.48-.45.48 5.45.48-1.38.48-.62.48.66.48-.04.48 3.26.48-7.15.48.88.48-6.22.48 3.22.48 4.2.48-.81.96-11.19.48-2.41.48-1.74.48-2.17.48-.83.48-1.27.48-7.59.48 6.4.96-7.62.48 2.95.48.45.47.66.48 2.33.97-8.37.47 1.5.48 11.4.48 1.61.48-3.06.48-3.95.48.11.48 3.46.48-2.5.48-.6.96-5.1.48 2.35.48 6.55.48-4.92.48 1.61.48 4.09.48-3.76.48-2.62.48-.2.48-6.46.48-.38.48-7.96.48 5.65.48-7.45.48 4.69.48-4.33.48-.5.48 2.52.48-.1.48-1.2.48-.1.48 2.11.48-.75.48 11.1.48-3.88.48-.98.48 2.65.47.67.49-1.12.47-.15.97 2.94.47-1.91.48 1.54.49-5.75.47-2.11.48 3.57.48-.25.48 1.14.48 6.09.96-3.94.48 1.42.48-5.75.48 1.68.48.05.48-2.33.48 1.62.48-7.95.48-.42.48-3.2.48.36.48.55.48-.79.48-.46.48.56.96-1.15.48 1.5.48-.07.48.87.48.1.48 4.57.48-2.58.48-1.72.48-.5.48-.01.48-2.31.48.1.96-2.94.48-.05.48-.62.48-1.63.48-4.03.48 3.02.48-1.8.48-.28.48-1.32.47-.63.48.86.49-3.6.47-.3.48-1.5.49 1.45.47-4.87.48-.44.48-.05.48-.94.48-1.97.48-.15.48 1.42.48 2.86.48-3.9.48 2.6.48-3.1.48-.4.48-1.16.48 2.87.48-1.75.48 3.02.48-2.98.48-2.31.48-1.73.48-.09.48-1.84.48 3.1.48 6.3.48-.8.48 6.7.48-2.96.48.2.48.9.96-4.64.48-1.05.48-2.27.48 2.59.48-.81.48 3.3.48-.05.48-.91.48-.25.48.5.47 1.8.49 5.2.48-1.09.47 3.66.49-4.94.47-1.26.48.18.48-.08.48 1.06.48-1.73.48-.97.48 1.51.48 2.22.48-.45.48-.98.48.06.48 3.18.48-.88.48-.62.48-1.22.48-.74.48-2.78.48.14.96 1.04.48.46.48 2.6.48-.49.48-.94.48.56.48 2.87.48-2.49.48-1.68.48.42.48-.95.48.76.48.93.48-.62.48 2.07.48.93.48 1.56.48-.94.47.02.49 2.54.48.88.47.22.49-2.12.47-4.75.48 2.66.49-2.39.47.36.48-2.05.49 1.81.47 1.21.48-3.57.48.6.48.2.96-6.08.48 1.93.96-3.87.48-4.9.48 1.34.48-5.2.48-3.54.48 2.54.48 6.78.48-1.01.48-2.72.48-.1.48-2.69.48 3.6.48-1.98.48-.7.48 5.27.48-4.31.48 1.3.48-.88.48 3.82.48-.68.96 3.23.48-1.5.48-2.25.48-.74.48-.42.48-2.58.48.4.48-1.2.48-.72.48.01.47 2.86.49-2.06.48 5.61.47-3.9.96-2.83.48.22.48-3.1.48-.6.48-.04.48-2.7.48.13.48-1.48.48-4.06.48-.21.48-2.58.48-3.53.48 1.73.48-.48.48-3.38.48.29.48 6.76.48-.81.48-4.51.48-1.66.48-1.3.48-3.99.48-2.76.48-.8.48 2.73.48-2.1.48 8.22.48-5.44.48-2.69.48-2.01.48 2.33.48-2 .48 2.83.48-4.23.48-1.31.48-3.77.48-.03.48-1.73.48.51.48-3.11.48-.68.48-4.44.47.57.49-1.78.95-8.66.48-2.28.48-6.31.48-3.06.48-5.59.48 3.2.48.67.48.17.48-3.51.48-1.11.48-5.17.48 3.13.48-2.21.48 1.33.48 6.34.48-1.73.48 3.53.48-.61.48-1.26.48 1.05.48-5.1.48-.49.48-3.7.48-.06.48.77.48.14.48-2.62.48-4.89.48-2.58.48.57.48-4.7.96-4.9.48-.22.48 1.36.48-.13.48-2.48.48 1.01.48-1.3.48 1.45h.48l.48 1.66.47-2.75.49 4.37.48-.37.47-5.55.49-3.4.47-.17.48-2.2.49-1.1.47-1.92.48-.03.48-1.4.48 2.67.48-4.48.48-1.87.48-1.23.48 3.64.48-3.53.48-.44.48-1.11.48-.73.48.53.48-1.9.48-1.02.48-2.15.48-.86.48 1.03.48 2.75.48 3.73.48-1.7.48 1.88.48 2.84.48.5.48 3.7.48-1.26.48-7.1.48-4.06.48.91.48-.28.48-2.71.48-.26.48.93.48-2.28.48 2.98.48-5.8.48-2.77.48.61.48-.4.48-1.3.48 4 .48-4.42.47 8.07.48-1.35.49-4.12.47 3.8.48-.56.48 2.97.48-3.59.48 21.13.48-7.38.48 6.95.48 3.35.48 7.67.48-9.32.48.56.48-4.9.48 2.01.48 6.19.48 2.83.48-1.54.48-3.36.48.9.48-2.18.48-3.1.48 4.13.48.71.48-1.1.48 4.7.48.06.48-2.58.96 6.09.48 1.65.48-3.43.48-1.12.48.2.48 1.59.48-.5.48 3.52.48 1.11.48-.95.48 11.98.48 2.25.48-4.3.47-.71.49 5.46.47-.71.48-2.1.48-1.37.48-3.4.48-1 .48 2.55.48-.67.48-2.17.48-1.61.48.6.48-3.1.48-.88.48 3.85.48-2.12.48.27.48-1.55.48 2.42.48.72.48-.92.48 1.6.48 3.73.48.46.48-.2.48 4.04.48 3.03.48-4.86.48-1.7.48-3.52.48-1.06.48-.8.48.38.48-1.8.48-.19 1.44-5.48.48 1.34.48-1.01.48.65.48-1.86.48-1.02.95-3.9.49 2.65.48-3.4.48-.94.48-2.76.47.79.49-4.24.48-1.03.47-.3.48 1.16.48 2.16.48-1.93.48-3.26.48-1.81.48-.6.48-1.03.48-1.42.48 2.54.48-2.53.48 4.12.48-3.62.48-.18.48-.39.48 1.08.48-.3.48-2.04.48.13.48-1.87.48-1.04.48-2.24.48-.37.48 9.22.96-5.86.48 1.38.48-.98.48-2.52.48 2.28.48-1.82.48-1.34.48.47.48 3.1.48-.76.48 1.41.48 8.16.48 4.18.48-7.52.48-2.82.48 2.05.48 1.27.48.55.48 1.69.48 2.15.47-1.07.49-1.67.47-4.77.48-1.15.49-1.53.47.9.48-1.66.48.27.48-.13.48-.66.48-.4.48 2.57.48-.08.48 1.5.48-1.3.48-.38.96-.27.48.48.48.17.48-.56.48-2.11.48 1.1.48-.06.48-.53.48.71.48-2.9.48.3.48 4.4.96-4.8.48-4.44.48 1.64.48-1.44.48-3.2.48.06.96 1.81.48-.93.47-.72.49-.93.48-.56.47 2.46.49-1.85.47.97.48.08.49-.8.47 1.18.48 3.36.49-3.31.47 1.92.96-5.42.48-.09.48 1.18 1.44-5.59.48 4.06.48-1.17.48.34.48-.06.48.61.48.25.48 1.23.48 2.71.48 6.22.48 2.51.48-.57.48.37.48-1.32.48 4.47.48 2.23.48-2.9.48-.01.48 5.8.48-1.1.48-1.83.48 1.41.48.43.48-1.5.48.86.48.6.48-2.5.48-.92.48-3.08.48.67.96-2.06.48.07.47 4.04.49.9.47-1.25.49.37.47-3.24.48.53.48-.56.48-.15.48 3.42.48.1.48 3.22.48 2.06.48-1.1.48 1.4.96-4.76.48 1.69.48-1.49.48-.68.48.1.48 2 .48 1.06.96 3.88.96 13 .48-2.5.48 2.13.48-.71.48-.39.48.85.48-1.13.48-1.96.48.34.48-1.86.48-.1.48 2.58.48-.88.48-3.81.48-.75.48-1.52.48-2.24.48.66.48-.7.48 2.09.48 3.14.47.05.49 1.36.48-.33.47-3.14.49.39.48 4.3.47.92.48.35.48 3.11.48 4.28.48-2.2.48 1.81.48.19.48-3.1.48-.33.48 2.84.48-5.83.48-.26.96 1.81.48 3.65.48-.97.48 2.91.48-.08.48-1.85.48-3.04.96 3.6.48-.39.48 1.83.48-1.26.48-.21.48-2.26.48.3.48-1.7.48-1.03.48 1.13.48-.77.48-1.96.96-2.36.48.92.96-5.15.48.76.96-2.95.48.61.48-2.2.48.56.47-1.32.48.92.49 2.68.47 5.37.48-2.7.48 2.7.48-1.33.48 1.54.48 4.9.96-2.64.48.78.48-.49.48-.1.48 1.96.48-2.22.48-1.45.48-.05.48 2.19.48.4.48-.13.48.72.48-.47.48 4.05.48-2.46.48-.24.96 7.61.48-1.8.48.92.48.7.48-4.43.48 5.63.48.05.48 1.93.48.42.48 10.33.48-1.5.48 13.95.48 3.1.47-4.53.97-5.63.48 4.71.48-3 .47 5.86.48-3.62.49 1.68.47-1.87.48-1.42.48 1.94.48-1.59.48.32.48 4.3.48 1.72.96-2.24.48-4.41.48-.25.48 4.35.48-1.72.48 1.94.48-.43.48.7.48-1.69.48 1.32.48.26.48-.1 1.44 10.94.48 3.66.48-.62.48-4.56.48 6.19.48-1.56.48 2.13.48-3.42.48-1.2.48-.82.48 2.36.48-3.55.48-2.3.48-.94.48 3.51.48.2.48 2.43.48.84.96 2.58.47-.34.49-.7.48-2.57.47.55.49-.74.47-1.54.48.62.49-.88.47 1.76.48 3.54.48 1.53.96-6.32h.48l.48-2.18.48 1.04.48-5.09.48-.3.48 3 .48-1.92.48 1.66.96-.95.48 4.83.48-.34.48-5.65.48-2.45.48-.17 1.44 1.06.48 1.31.48.17.48-.54.48-2.04.48.69.48-.73.48-1.13.48 1.77.48-2.26.48.9.48-1.01.48.27.48 1.09.48.85h.48l.48 1.38.47 2 .49 5.4.48.18.47-1.68.49-.76.48-1.43.47.26.48-.29.48 4.55h.48l.48 1.96.48-3 .48 1.97.48-.18.48-1.1.48.1.48-.04.96-.5.48 3.95.48-2.65.48-.9.48-4.7.48-.4.48-.01.48.45.48 4.53.48-.96.48 1.87.48-.29.48-1.59.48 4.08.48-2.18.48.94.48 1.15.48-3.52.48-.88.48 1.28.48.28.48-.26.48.59.48-.25.48-.33.48.31.48.75.47 1.17.97-2.47.47-.16.49.44.47.12.48.06.49-.85.47 2.1.48.53.48-.45.48.09.48-.67.48.26.48-.35.48-.92.48.55.48 1.48.48 1.05.48-.6.48.17.48-1.55.48.92.96-3.72.48 1.23.48-1.7.48-.52.48-.14.48-.27.78-.79" stroke="#2D97FA" stroke-width="3"/><path d="m41.77 63 9.21-22.4h2.56L62.7 63h-3.97l-7.17-18.14h1.34L45.67 63h-3.9Zm4.54-4.32v-3.2h11.87v3.2H46.31Zm21.87-4.13v-3.2h5.6c.77 0 1.44-.15 2.01-.45.6-.32 1.07-.75 1.41-1.3.34-.58.51-1.26.51-2.02 0-.77-.17-1.43-.5-1.99a3.34 3.34 0 0 0-1.42-1.31 4.08 4.08 0 0 0-2.01-.48h-5.6v-3.2h5.8c1.4 0 2.66.29 3.77.86a6.5 6.5 0 0 1 2.65 2.44c.66 1.04 1 2.27 1 3.68 0 1.4-.34 2.63-1 3.68a6.5 6.5 0 0 1-2.65 2.43c-1.11.57-2.37.86-3.78.86h-5.8ZM65.65 63V40.6h3.68V63h-3.68Zm25.48-8.96L82.39 40.6h4.26l6.81 10.72h-1.98L98.3 40.6h4.19l-8.8 13.44h-2.56ZM90.62 63V51.74h3.68V63h-3.68Z" fill="white"/><path d="M49.26 104.32a7 7 0 0 1-3.5-.86 6.3 6.3 0 0 1-2.36-2.37 7.27 7.27 0 0 1-.83-3.52v-8.93h3.52v8.77c0 .74.12 1.38.35 1.92.26.51.62.9 1.09 1.18.49.28 1.06.42 1.73.42 1.02 0 1.8-.3 2.33-.9.56-.62.83-1.5.83-2.62v-8.77h3.52v8.93c0 1.34-.28 2.53-.86 3.55-.55 1-1.33 1.8-2.34 2.37-1 .55-2.16.83-3.48.83Zm18.45 0a6.54 6.54 0 0 1-3.14-.74 5.82 5.82 0 0 1-2.17-2.08 5.78 5.78 0 0 1-.77-2.97V94.1a5.6 5.6 0 0 1 2.97-5.02 6.26 6.26 0 0 1 3.1-.77 7.36 7.36 0 0 1 6.4 3.97c.67 1.2 1 2.55 1 4.06 0 1.5-.33 2.85-1 4.07a7.42 7.42 0 0 1-2.65 2.84 6.84 6.84 0 0 1-3.74 1.06Zm-.58-3.33c.85 0 1.6-.19 2.24-.57.66-.4 1.17-.96 1.54-1.67a5 5 0 0 0 .57-2.43 5 5 0 0 0-.57-2.43 3.91 3.91 0 0 0-1.54-1.63 4.1 4.1 0 0 0-2.24-.61 4.26 4.26 0 0 0-3.8 2.24c-.37.7-.55 1.51-.55 2.43 0 .92.18 1.73.54 2.43.37.7.88 1.26 1.54 1.67.66.38 1.42.57 2.27.57Zm-7.65 9.41V88.64H63v4.13l-.6 3.74.6 3.71v10.18h-3.52Zm27.3-6.4V82.24h3.53V104h-3.52Zm-3.67-12.16v-3.2h10.88v3.2H83.1Zm20.04 12.48a7.96 7.96 0 0 1-6.98-3.97 7.96 7.96 0 0 1-1.05-4.06 7.8 7.8 0 0 1 3.96-6.88 7.78 7.78 0 0 1 4.07-1.09c1.51 0 2.88.35 4.1 1.06a7.77 7.77 0 0 1 2.87 2.88 7.6 7.6 0 0 1 1.1 4.03c0 1.5-.37 2.85-1.1 4.06a8.02 8.02 0 0 1-2.88 2.91 8.02 8.02 0 0 1-4.1 1.06Zm0-3.4c.87 0 1.64-.18 2.3-.57.69-.4 1.2-.96 1.57-1.66.38-.7.58-1.5.58-2.4 0-.9-.2-1.69-.58-2.37a4.32 4.32 0 0 0-3.87-2.2 4.43 4.43 0 0 0-3.87 2.2 4.97 4.97 0 0 0-.55 2.37c0 .9.18 1.7.55 2.4.38.7.9 1.26 1.56 1.66.69.39 1.45.58 2.3.58Zm17.14-6.04v-3.2h14.11v3.2H120.3Zm5.44-9h3.26v14.76h-3.26V85.89ZM136.99 96l7.97-14.4h4.16L140.96 96h-3.97Zm0 2.24V96l1.57-1.06h15.8v3.3H137Zm10.62 5.76V89.34h3.62V104h-3.62Zm18.17.32a8.19 8.19 0 0 1-4.64-1.4 10.1 10.1 0 0 1-3.33-4.04 13.95 13.95 0 0 1-1.25-6.11c0-2.35.4-4.38 1.22-6.08a9.85 9.85 0 0 1 3.33-4 8.04 8.04 0 0 1 4.6-1.41c1.71 0 3.26.47 4.64 1.4a9.63 9.63 0 0 1 3.3 4c.83 1.71 1.25 3.75 1.25 6.12 0 2.35-.42 4.38-1.25 6.11a9.63 9.63 0 0 1-3.3 4 7.9 7.9 0 0 1-4.57 1.41Zm-.07-3.46c1.11 0 2.07-.3 2.88-.9.81-.59 1.44-1.49 1.9-2.68.46-1.2.7-2.7.7-4.51 0-1.8-.24-3.29-.7-4.48a5.42 5.42 0 0 0-1.93-2.66c-.8-.6-1.76-.9-2.85-.9-1.08 0-2.04.3-2.88.9a5.5 5.5 0 0 0-1.88 2.66 12.7 12.7 0 0 0-.68 4.48c0 1.81.23 3.32.68 4.51a5.71 5.71 0 0 0 1.88 2.69c.84.6 1.8.9 2.88.9Zm19.5 3.46c-1.5 0-2.84-.34-4.03-1.02a7.62 7.62 0 0 1-3.87-6.72c0-2.05.71-4.12 2.14-6.21l6.11-8.77h4.26l-6.53 9.18-1.34.8c.21-.49.48-.9.8-1.24a3.3 3.3 0 0 1 1.3-.84c.56-.19 1.25-.28 2.06-.28 1.3 0 2.47.3 3.52.92a6.77 6.77 0 0 1 2.56 2.53 7.2 7.2 0 0 1 .96 3.78 7.84 7.84 0 0 1-3.94 6.82 7.73 7.73 0 0 1-4 1.05Zm0-3.46a4.15 4.15 0 0 0 3.68-2.14c.39-.68.58-1.44.58-2.27a4.38 4.38 0 0 0-2.08-3.78 4.15 4.15 0 0 0-2.18-.57 4.15 4.15 0 0 0-4.22 4.35c0 .83.18 1.59.54 2.27a4.08 4.08 0 0 0 3.68 2.14Zm14.8-10.52a4.54 4.54 0 0 1-3.93-2.24c-.41-.69-.61-1.45-.61-2.3 0-.86.2-1.62.6-2.28a4.42 4.42 0 0 1 3.94-2.24 4.53 4.53 0 0 1 3.97 2.24c.4.66.6 1.42.6 2.27a4.43 4.43 0 0 1-2.23 3.94c-.69.4-1.46.6-2.34.6Zm0-2.72c.53 0 .96-.17 1.28-.52.32-.34.48-.77.48-1.3 0-.54-.17-.97-.51-1.29a1.63 1.63 0 0 0-1.25-.51c-.51 0-.93.17-1.25.51-.32.32-.48.75-.48 1.28 0 .54.16.97.48 1.31.32.35.74.52 1.25.52Zm9.38 16.7a4.54 4.54 0 0 1-3.94-2.24c-.4-.68-.6-1.45-.6-2.3 0-.86.2-1.61.6-2.28a4.42 4.42 0 0 1 3.94-2.24 4.53 4.53 0 0 1 3.97 2.24c.4.67.6 1.42.6 2.28a4.43 4.43 0 0 1-2.24 3.93c-.68.4-1.46.61-2.33.61Zm0-2.72c.53 0 .96-.17 1.28-.51.34-.34.51-.78.51-1.31a1.74 1.74 0 0 0-1.8-1.8c-.5 0-.92.17-1.24.52a1.8 1.8 0 0 0-.48 1.28c0 .53.16.97.48 1.3.32.35.74.52 1.25.52Zm-13.6 2.4 14.37-22.4h3.48L199.28 104h-3.5Z" fill="#2194FF"/><defs><linearGradient id="pbotnt0_linear_54_48" x1="338" y1="-11.66" x2="338" y2="446.18" gradientUnits="userSpaceOnUse"><stop stop-color="#1DADFF"/><stop offset="1" stop-color="#75CDFF" stop-opacity="0"/></linearGradient></defs></svg>