<svg width="297" height="144" viewBox="0 0 297 144" fill="none" xmlns="http://www.w3.org/2000/svg">
<mask id="mask0_390_12358" style="mask-type:alpha" maskUnits="userSpaceOnUse" x="0" y="0" width="297" height="144">
<path d="M296.5 20C296.5 9.23045 287.77 0.5 277 0.5H90.5968L74.25 0.500603L20.0002 0.500162C9.23056 0.500075 0.5 9.23055 0.5 20.0002V124C0.5 134.77 9.23047 143.5 20 143.5H277C287.77 143.5 296.5 134.77 296.5 124V20Z" fill="#0F103C" stroke="#181A5F"/>
</mask>
<g mask="url(#mask0_390_12358)">
<line x1="30.748" y1="153.437" x2="30.748" y2="-5.79214" stroke="#202020"/>
<line x1="70.3711" y1="153.437" x2="70.3711" y2="-5.79214" stroke="#202020"/>
<line x1="105.715" y1="153.437" x2="105.715" y2="-5.79214" stroke="#202020"/>
<line x1="145.344" y1="153.437" x2="145.344" y2="-5.79214" stroke="#202020"/>
<line x1="184.967" y1="153.437" x2="184.967" y2="-5.79214" stroke="#202020"/>
<line x1="227.551" y1="153.437" x2="227.551" y2="-5.79214" stroke="#202020"/>
<line x1="267.18" y1="153.437" x2="267.18" y2="-5.79214" stroke="#202020"/>
<line x1="-12" y1="32.126" x2="306.457" y2="32.126" stroke="#202020"/>
<line x1="-12" y1="71.752" x2="306.457" y2="71.752" stroke="#202020"/>
<line x1="-12" y1="111.38" x2="306.457" y2="111.38" stroke="#202020"/>
<path d="M-8 116.907L13.3024 117.441C27.4915 117.797 41.1632 112.105 50.9083 101.786L60.2301 91.9149C70.0072 81.5617 85.199 78.395 98.2983 83.9798V83.9798C111.398 89.5646 126.589 86.398 136.367 76.0447L144.73 67.1883C154.507 56.835 169.699 53.6684 182.798 59.2532V59.2532C195.898 64.838 211.089 61.6713 220.867 51.318L226.936 44.8913C238.092 33.0779 255.426 29.4647 270.372 35.8371V35.8371C282.098 40.8361 295.53 39.7587 306.309 32.9548L330 18" stroke="#DCFF03" stroke-width="2"/>
<g filter="url(#filter0_f_390_12358)">
<path d="M-8 116.907L13.3024 117.441C27.4915 117.797 41.1632 112.105 50.9083 101.786L60.2301 91.9149C70.0072 81.5617 85.199 78.395 98.2983 83.9798V83.9798C111.398 89.5646 126.589 86.398 136.367 76.0447L144.73 67.1883C154.507 56.835 169.699 53.6684 182.798 59.2532V59.2532C195.898 64.838 211.089 61.6713 220.867 51.318L226.936 44.8913C238.092 33.0779 255.426 29.4647 270.372 35.8371V35.8371C282.098 40.8361 295.53 39.7587 306.309 32.9548L330 18" stroke="#DCFF03" stroke-width="2"/>
</g>
</g>
<defs>
<filter id="filter0_f_390_12358" x="-32.0254" y="-6.8457" width="386.559" height="149.303" filterUnits="userSpaceOnUse" color-interpolation-filters="sRGB">
<feFlood flood-opacity="0" result="BackgroundImageFix"/>
<feBlend mode="normal" in="SourceGraphic" in2="BackgroundImageFix" result="shape"/>
<feGaussianBlur stdDeviation="12" result="effect1_foregroundBlur_390_12358"/>
</filter>
</defs>
</svg>
